<?xml version="1.0" encoding="UTF-8"?>
<svg version="1.1" viewBox="0 0 896 896" width="1280" height="1280" xmlns="http://www.w3.org/2000/svg">
<path transform="translate(0)" d="m0 0h896v896h-896z" fill="#8C8C8F"/>
<path transform="translate(415,175)" d="m0 0h90l13 2 10 3 6 4 8 3 14 8 10 6 11 7 15 9 16 8 12 8 13 10 7 6 7 8 5 6 3 5 3 3 3 7 2 7h2l1 7h2l1 4h2l1 7h2v2l4 1 6 9 11 12 5 7 2 1v2h2l1 2 1 10 1 1 3 17 3 8 9 14 2 5 1 9v113l-2 11-8 14h-2l-1 6-3 6-2 12-4 10-3 7-9 14-11 18-9 14-2 5-4 5-7 12-2 5-4 8-7 11-6 7-9 6-16 7-12 6-13 7-10 7-20 12-14 7-2 2-16 5-12 5-9 3-13 4-7 2-11 1h-62l-18-2-15-5-10-5-10-3-7-3-15-5-7-2-4-3-5-2v-2l-9-3-10-6-7-3-12-7-6-3-5-4-2-3-5-3-13-11-5-4-7-8-16-16-9-12-8-10-10-13-5-7-5-5-7-14-4-9-4-13-3-22-3-10-4-8-1-4-3-2-3-7-2-10-2-9v-58l2-24 3-12 6-15 4-8 3-9 1-6 1-24 4-5 2-5 9-10 14-14 5-7h2l2-4 5-5 6-9 5-8 4-10h2l3-9 7-9 9-7 3-2h4v-2l17-9 2-2h3v-2l5-3h2v-2l6-4 4-3h2v-2l7-3 4-4 4-3h2l1-3 8-5 21-7 14-5 18-2z" fill="#090808"/>
<path transform="translate(154,86)" d="m0 0h590l28 1 5 5v14l-5 53-1 71v40l-1 65v116l-1 56v49l1 30 1 63v118l-2 22-3 7-3 2-24 2h-99l-100-1-83-2h-30l-48-1-62 1-84 2-106 1-15 1-12 3-18 3-7-1-3-3-2-6-1-527v-93l1-50 3-30 3-5 13-4 14-1zm261 89-37 1-18 2-14 5-21 7-9 6v2l-4 2-5 3-1 2-7 3v2l-5 2-5 4-2 1v2l-5 2-2 1v2l-4 1-16 9-2 1v2l-5 1-10 7-6 7-3 4-2 8h-2l-5 11-10 16-5 5-2 4-4 2-6 8-18 18-3 4-3 7-2 2-1 24-3 12-4 10-4 9-5 13-2 16-1 14v58l3 17 3 5 2 5 2 1 4 11 3 8 2 10 3 19 6 17 2 2 2 5 5 9 6 7 11 14 6 8 12 15 7 8 21 21 11 10 5 4 4 2 7 7 5 2 15 9 7 3 9 5 7 2 1 3 7 3 2 2 8 2 16 5 11 4 11 5 11 4 6 2 18 2h62l17-2 9-3 10-4 15-5 8-3 10-4 4-3 7-3 19-11 14-9 5-3 9-5 12-6 18-8 10-8 7-10 4-6 3-7 7-14 6-8 5-10 7-11 8-13 11-17 4-8 4-14 2-9 3-6v-4h2l6-11 3-7 1-7v-113l-2-12-7-12-5-8-3-14-1-7-1-1-1-10-1-2h-2v-2l-5-5-9-10-8-10-3-5h-3v-2h-2l-1-7h-2l-1-4h-2l-1-7h-2l-2-7-4-9-4-3-4-7-8-8-5-6-20-15-17-10-7-3-11-7-7-4-11-7-16-9-6-4-9-3-4-3-14-4-9-1z" fill="#BABCBB"/>
<path transform="translate(228,368)" d="m0 0h15l9 6 6 7v11l-2 8 1 8 5 12 9 12 6 7 11 6 36 6 16 1h27l11-4 17-9 7-6 5-10 1-5v-37l6-7 13-5 12-1h20l8 7 3 5 1 4 1 29 7 14 10 13 7 7 9 2 21 1 20 3h19l15-1 13-4 15-8 10-9 2-9v-41l5-7 9-6h16l13 2 10 3 5 6 5 19 1 13v113l-2 9-7 16-6 10-8 27-7 13-6 9-4 7-5 18-6 12-8 10-9 8-9 4-19 5-16 7-10 5-22 7-14 5-9 5-8 6-8 3-2 1-13 1-103 1-7-3v-2l-7-1-3-3-5-3-16-8-11-4-25-10-17-7-12-3-11-2-5-3-8-21-14-24-10-17-13-24-9-26-7-13-7-11-4-10-2-14-2-30-1-2v-23l4-30 4-18 4-7 12-14 11-9z" fill="#FBFA0C"/>
<path transform="translate(0)" d="m0 0h896v896h-896zm794 50-100 2h-650l-12 1-3 7v43l1 1v144l1 11v78l-1 17v149l1 20v129l-1 65v44l1 17v23l1 26 1 9-1 31 2 2 14 1 5 1 40 3 611 1h80l58-1 31-1 1-671 1-86v-28l-4-1-5-2-8 1-9-4-3-1v-2l-7-4-9-17h-2l-2-5-1-3z" fill="#E5F0F6"/>
<path transform="translate(103,89)" d="m0 0h662l5 2 2 2 1 10-2 11-3 7-3 3-10 3-21 1-27-1h-91l-46 1h-32l-8 1-21 3h-13l-34-4-11 1-14 1-23 1-6 1h-11l-18-3-3-1-39-1-35-1h-68l-43 1h-21l-38 1-6 2-6 4-7 10-2 14-1 46v102l2 57 1 18 2 43 1 36-1 52-1 22-2 25-2 72v30l-1 127-3 6-5 4-4 2-15 3-6-1-3-3-1-3-1-15v-628l1-28 2-23 2-7 5-3 5-2z" fill="#E0E1E0"/>
<path transform="translate(821,82)" d="m0 0 4 2 10 9 2 2v461l1 311 16 1v2l-13 2h-744l-5-2-10-1-6-5-1-3v-21l4-4 11-6 22-4h651l7-1 40-1 1-9 1-39 1-23v-628l2-26 3-14z" fill="#080707"/>
<path transform="translate(316,49)" d="m0 0h542l12 1 4 2v2h2l1 6v28l3 1 2 2 2-2v2l6-2h6v807h-878l1-31 2-12 1-33v-538l1-144 1-45 2-34 1-5 3-2 9-1 48-1zm478 1-100 2h-650l-12 1-3 7v43l1 1v144l1 11v78l-1 17v149l1 20v129l-1 65v44l1 17v23l1 26 1 9-1 31 2 2 14 1 5 1 40 3 611 1h80l58-1 31-1 1-671 1-86v-28l-4-1-5-2-8 1-9-4-3-1v-2l-7-4-9-17h-2l-2-5-1-3z" fill="#DFE0DF"/>
<path transform="translate(818,76)" d="m0 0 4 1 2 1v2l4 2 4 5 5 3 11 2 8 2 16 2 2 2v104l-1 671-32-1v-1l13-1v-2h-14l-3-3-1-309v-461l-8-8-5-4-4 2-3 14-2 26v628l-1 23-1 39-2 9-3 1-37 1-7 1h-651l-22 4-13 7-1 2v21l1 3 5 4 13 2 2 1 736 1v1h-739l-44-4-2-1 2-12 2-21 8-16 5-2h11l9-1 25-5 28-1 3-1 7 1h237l29 1h17l11-1h166l14-1 41 1h25l11-1h49l25-4 7-1 12-2h11l6 3 1-4 1-57 1-632 3-24z" fill="#787777"/>
<path transform="translate(360,216)" d="m0 0h140l17 2 12 5 10 6 13 6 15 5 12 7 10 9 7 9 14 15 28 28 6 7 5 5 15 16 4 7v2l-2 1h-49l-10-1h-136l-4 1-26 1-32-1-3-1h-133l-34 2-19-1-10-5-1-4 17-16 16-13 12-12 7-8 16-16 7-8 9-9 11-8 10-6 21-10 12-8 10-6z" fill="#FBFA0C"/>
<path transform="translate(20,88)" d="m0 0 4 1v49l-1 144v538l-1 33-2 12-1 30-1 1h-18v-799l4-2 6 1 5-2z" fill="#FDFDFD"/>
<path transform="translate(818,76)" d="m0 0 4 1 2 1v2l4 2 4 5 3 1 1 4 2 1v445l-1 18h-1v-461l-8-8-5-4-4 2-3 14-2 26v628l-1 23-1 39-2 9-3 1-37 1-7 1h-651l-22 4-13 7-1 2v21l1 3 5 4 13 2 2 1 736 1v1h-739l-44-4-2-1 2-12 2-21 8-16 5-2h11l9-1 25-5 28-1 3-1 7 1h237l29 1h17l11-1h166l14-1 41 1h25l11-1h49l25-4 7-1 12-2h11l6 3 1-4 1-57 1-632 3-24z" fill="#797879"/>
<path transform="translate(305,516)" d="m0 0 5 1 15 14 16 16 7 8 46 46 6 2h77l6-2 16-15 8-8 3-4h2l2-4 26-26 7-8 11-13 8-7 5 1 7 9 4 9-1 11-6 9-9 10-9 9-10 8-11 11-7 8-9 10-15 15-8 7-9 8-9 7h-83l-9-6-6-5-7-8-8-8-7-8-3-3v-2l-4-2-4-4v-2h-2v-2h-2l-6-7-2-1v-2h-2v-2h-2v-2l-4-2-10-10-7-6-5-6v-2h-2v-2h-2l-7-10-1-7 4-11z" fill="#0B0A0A"/>
<path transform="translate(840,188)" d="m0 0 4 2 2 17 1 29 3 5-1 5 3 2 2 12v20l-1 13 1 7-1 2-1 16v8l-4 12 1 6v21l1 7v6l1 5-2 4 1 13v5l1 4 1 16 2 40v22l-1 7v12l-3 17-1 15v17l-1 4 1 5-1 6 1 7-1 2-1 13 1 13v29l-1 12v26l1 5 1 9h-2l1 5 2 3 1-3-1-5 1-2h3v8l3 5 1 10v13l1 7v104l-1 1-1 21-9 8-4 1-7 1v-325l1-268 1-80z" fill="#7B787F"/>
<path transform="translate(316,49)" d="m0 0h542l12 1 4 2 1 2 1 11v31h-1l-1-8-7-1-4-1-5 1-9-4-3-2v-2l-4-1-5-4-7-14v-2h-2l-3-5v-2h-31l-100 2h-650l-12 1-2 6v43l1 1v144l1 11v78l-1 17v149l1 20v129l-1 65v44l1 17v23l1 26 1 9-1 31 1 1 14 1 5 1 40 3 611 1h80l58-1h31v-671h1v673l-5 2-6-2h-20l-95 2-71-1h-418l-170-1-42-3-20-2-1-1v-31l-1-29v-41l1-78v-143l-1-313v-118l2-56 2-7 1-1 9-1 48-1z" fill="#BABCBB"/>
<path transform="translate(871,124)" d="m0 0 2 1v748l-32-1v-1l13-1v-2h-14l-2-1v-2h17l3-1 1-27 1-164v-390l1-40 2-23v-16l1-7v-20l1-9v-4l1-14 2-17 2-7z" fill="#605D5D"/>
<path transform="translate(818,76)" d="m0 0 4 1 2 1v2l4 2 4 5 3 1 1 4 2 1v445l-1 18h-1v-461l-8-8-5-4-4 2-3 14-2 26v628l-1 23-1 39-2 9-3 1-37 1-7 1h-651l-22 4-13 7-1 2v21l1 3 5 4 13 2 2 1 736 1v1h-739l-19-2v-2h-10l-2-1 2-11v-20l7-6 10-4 8-3 20-3h160l492-1 36-2 11-1 1-4 1-69 1-632 3-24z" fill="#474647"/>
<path transform="translate(32,53)" d="m0 0h3l2 7 1 55 1 7v10l1 20v24l1 19-2 38v66l-1 30v29l1 17v45l-1 29v64l1 8v177l1 14 1 20 1 8v16l1 7v37l-3 63-2 4 3 2h-7l-2-2 1-33-1-11-1-27v-22l-1-13v-56l1-66v-120l-1-24v-149l1-10v-78l-1-12v-142l-1-1v-43z" fill="#9FA09E"/>
<path transform="translate(235,85)" d="m0 0h532l9 2 4 5v16l-5 43-1 17-1 65v151l1 39v55l-1 28v279l-1 11-3 3-4 2-13 1h-269l-28-1-11 1h-22l-11-1-82-1h-41l-58 1h-24l-72 1-29 3-20 5h-10v-2h-2l-3-4-1-6v-47h1l1 46 2 8 9 1 23-4 7-2 15-1 106-1 88-2 63-1 50 1h30l76 2 112 1h89l22-2 3-2 2-6 2-26v-121l-1-56-1-40v-51l1-45v-131l1-60v-42l1-58 5-53v-14l-4-4-28-1h-416l-93-1z" fill="#A0A19E"/>
<path transform="translate(799,809)" d="m0 0 12 1-1 7-1 1-30 2-17 1-519 1h-133l-20 3-12 5-9 4-3 3v20l-3 11 12 1v1h-14l-8-2 1-6h2v-8l1-4 1-15 3-5 5-5 13-3 1-1 19-3 7-2 12-1 37 1 12 1h93l25-1 5-1 24 1 44-1 57 1 68-1 45 1h20l13-1h98l22 1 6-1h18l53-1 13-2 16-1z" fill="#686768"/>
<path transform="translate(256,40)" d="m0 0 57 1 25 1 35 1h26l17-1 8-1h67l27 2 33 1h34l66 1 36 1h91l82 2 11 1 3 1-1 2-3-1-12-1h-542l-229 1-57 1v-1l8-1 43-2 56-2 35-1 38-2 26-1z" fill="#E0E1E0"/>
<path transform="translate(316,49)" d="m0 0h542l12 1 4 2 1 2 1 11v31h-1l-1-8-7-1-4-1-5 1-9-4-3-2v-2l-4-1-5-4-7-14v-2h-2l-3-5v-2h-31l-100 2h-650l-12 1-2 6h-2v-6l2-2 9-1 48-1z" fill="#BBBDBC"/>
<path transform="translate(839,93)" d="m0 0 3 1 4 1 9 1 6 5 2-4 9-1 2 2v104l-1 328h-1v-405l-2 2-2 12-1 14-1 12h-2l2 4-1 16v17l-1 4v14l-2 26-1 51v398l-1 19h-1l-1-166v-253l1-59-1-5v-14l-2-26-4-13-2-17-1-2v-12h-2v-7l-1-5-1-12v-15l-1-3v-4h-2v-2h-2z" fill="#6F6E70"/>
<path transform="translate(810,818)" d="m0 0 1 4-1 2-3 1-37 1-7 1h-651l-22 4-13 7-1 2v21l1 3 5 4 13 2 2 1 736 1v1h-739l-19-2-3-7-1-11v-13l1-4 14-7 5-2 22-3 241-1 336 1 68-1 50-2z" fill="#3D3B36"/>
<path transform="translate(810,822)" d="m0 0 1 3-3 2-27 1-21 2-32 1h-27l-113-1-63 1-36 1-25-1-130-2h-216l-15 2-12 3-4 2-1 4h-2l-1 12 2 1-3 4-1 4 3 6 3 2h-5l-6-5-1-3v-21l4-4 11-6 22-4h651l7-1 40-1z" fill="#1E1A18"/>
<path transform="translate(839,697)" d="m0 0 2 2 1 16 2 21 2 6-1 4 2 9 1 8 1 1 4-8 2-1 1 4-2 2 1 5 2 3v6l1 6v51l-1 21-9 8-4 1-7 1v-26l1-134z" fill="#8C8C8F"/>
<path transform="translate(339,185)" d="m0 0h3v2l-10 4-7 4h-2l-1 3v1l9-1 7-3 5-1-1 4h-2v2l-4 2-1 4 12 1-1 5-8 2v2l2 1-4 6-5 3h-3l-1 2-6 2-9 2-9 4-7 2-9-1-5-2-5 4-2 3-3-1-1-5 1-2-6 2h-4l-1 3-6 3h-3l-1 4-7 3-3 5h-2v2h-3l-1 5-3 3 3-9 7-9 9-7 3-2h4v-2l17-9 2-2h3v-2l5-3h2v-2l6-4 4-3h2v-2l7-3 4-4 4-3h2l1-3 8-5 12-4z" fill="#161616"/>
<path transform="translate(792,814)" d="m0 0h18l-1 4-30 2-17 1-519 1h-133l-20 3-12 5-9 4-3 3v20l-3 11 12 1v1h-14l-3-4 2-7v-14l1-5 2-7 3-3 16-6 12-3 14-2 24-1 80 2h15l97-2h161l22 1 78-1h154l36-2z" fill="#5F5C5C"/>
<path transform="translate(793,806)" d="m0 0h9l7 2 2-1v3l-4 1-8-1-12 2-24 2-10 1-59 1h-9l-5 1-31-1h-89l-17 1h-26l-35-1-70 1-67-1-33 1-23-1-10 1-20 1h-96l-8-1-38-1-12 1v-2l15-2h45l14 1h15l20 1 12-1h40l28-1h104l23 1 14-1h301l21-2 11-1 22-3z" fill="#75716E"/>
<path transform="translate(225,615)" d="m0 0 4 1 4 5 1 7 4 2v2h2l1 4 3 1 2 4 6 4 2 4h2v2h2l1-3 6 16 7 3 17 3 6 2-4 1-9-2v4l-3 2 4 3v2h2l3 9 3 3-1 3-6 1-4-2v-2h-4l-1-4-4-1-3-1 1-4 1-3-6 1v2h-2l-1 3-8-7 1-2-7-8-1-3-3-1-7-8-4-4-1-3-2-1-3-5-1-3-3-1-5-6-4-8-1-3h3l7 7 5 2 2 7h5l-1-2-2-2v-6l-4-4 1-2-5-1v2h-3l-1-4 4-5z" fill="#231E1B"/>
<path transform="translate(576,676)" d="m0 0h2l-2 5-4 12-3 2-6 2-1 2h-2l1 3-6 3-5-1-9 1-5 3-4-1-5 1h-7l-14 4-8 1-94 1-1 1-13 1h-13l-10-3-11-7-6-3v-2l-7 1-9-4-3-4-4-2-4 1-8-6v-2h-3v-3l-3-1v-2l9 3 20 7 11 5 12 6 10 6 5 2v2l7 2 103-1 13-1 7-3 8-4 6-5 16-7 23-7 11-5z" fill="#27221E"/>
<path transform="translate(480,169)" d="m0 0 33 1 5 2 7 1 11 5-1 3 5 2v2l6 2 5 2v2l5 1 14 9 11 7 3 2v2l-6-2-8-6-7-4-16-9-6-4-9-3-4-3-14-4-9-1h-90l-37 1-18 2-14 5-21 7-8 5-5 5-4 2-2 3-7 2v2l-10 7h-2v2l-5 3h-2v2l-11 6-9 5h-2v2l-7 3-9 7-7 9-3 8h-2l-3 10-12 18-1-3 1-3 2-1 3-7 3-3 1-4h2l3-9 6-11 5-5 7-6 15-9 10-5 17-12 9-7 13-10 4-4 5-3h2l2-4 12-6 16-5 19-3 2-1 14-1h75z" fill="#89898B"/>
<path transform="translate(195,401)" d="m0 0 1 4-1 3h2l3 6-1 36v31l4 23 4 15 3 10 4 10 1 10-1 2 2 6 3 15 2 5-1 3-6-16-4-12-7-13-7-11-4-10-2-14-2-30-1-2v-23l4-30z" fill="#E5DA20"/>
<path transform="translate(311,684)" d="m0 0 4 1 5 5 3 2 5-1v2l4 1 2-1v5l7 2 4 1h5v2l6 2 11 7 10 3 12 1v1l-9 1-4 1-11-4-6-2-7-4-4-1 2 7-6 3h-2l2 4 7 1 4 3-1 3-7 1-6-2-17-7-8-6-3-1v-2l-4-1-7-3v-2l-5-1-4-3 1-3-1-5v-4l2-1v-4h10l6 2z" fill="#161616"/>
<path transform="translate(839,93)" d="m0 0 3 1 4 1 9 1 6 5 2-4 9-1 2 2v17h-1l-1-8-5 2-3 7-2 12-1 9v6l-1 2v90l-2-1v-17l-2-26-4-13-2-17-1-2v-12h-2v-7l-1-5-1-12v-15l-1-3v-4h-2v-2h-2z" fill="#75716E"/>
<path transform="translate(810,801)" d="m0 0h1v6l-3 2-6-2h-9l-16 3-15 1-13 2-22 1h-296l1-3 10-1h166l14-1 41 1h25l11-1h49l25-4 7-1 12-2h11l6 3z" fill="#79787A"/>
<path transform="translate(260,650)" d="m0 0 4 5 4 6 3 2h4l-1-4-1-2 9 1v3l7 2 8 5 3 1v2l5 2 2 2 8 3 7 2 6 2 21 6 16 6 5 3 13 6 21 6h90l17-8 9-6 22-8 12-3 13-5 3 1-13 6-24 7-16 8-8 6-8 3-2 1-13 1-103 1-7-3v-2l-7-1-3-3-5-3-16-8-11-4-25-10-17-7-12-3-11-2-5-3-4-10z" fill="#E5DA20"/>
<path transform="translate(480,428)" d="m0 0 5 1 2 1v-2h6l9 2 1 1 12 2 5 2 11 2 4 2 9 2 6 2 8 1 1 5 4 1h19l8-1-2 2-8 2-15 1h-19l-20-3-21-1-9-2-10-10-6-8z" fill="#221C19"/>
<path transform="translate(811,121)" d="m0 0h1v603h-1l-1-178-1-29-1-42v-40l1-5v-20l-1-6v-36l1-16v-45l1-31v-26z" fill="#717070"/>
<path transform="translate(869,676)" d="m0 0h2l1 4v193l-31-1v-1l13-1v-2h-14l-2-1v-2h17l3-1 2-62 1-72 2-3 1 13v25l-1 15v30l-1 41v18l-1 2 7-1v-159l1-34z" fill="#4A4A4C"/>
<path transform="translate(520,208)" d="m0 0 7 1 8 4 2 4 2 1 1 5 3 1 5 5 18 6 9 2 8 4 1 3 5 5 4 6 2 5 3 4-1 3-8-9-5-6-13-9-12-5-14-5-13-7-12-6-8-2-12-1h-140l-13 6v-2l12-6 3-1 134-1 16-2z" fill="#201B19"/>
<path transform="translate(873,202)" d="m0 0h1v673l-5 2-6-2h-20l-95 2-71-1v-2h107l58-1h31z" fill="#B4B6B3"/>
<path transform="translate(818,76)" d="m0 0 4 1 2 1v2l4 2 4 5 3 1 1 4 2 1v445l-1 18h-1v-461l-8-8-5-4-4 2-3 14-3 22h-1v-9l3-24z" fill="#535253"/>
<path transform="translate(794,50)" d="m0 0h31l2 5 1 3h2l9 17 7 4v2l4 2 9 3 7-1 9 3v7l-1-2-13-1-10-3-9-3-8-4-5-6v-2h-2l-2-4v-4l-4-2-6-4-15-5-9-1-97-1v-1z" fill="#9FA09E"/>
<path transform="translate(780,826)" d="m0 0h28v1l-27 1-21 2-32 1h-27l-113-1-63 1-36 1-25-1-129-2 1-2 117 1h297z" fill="#161616"/>
<path transform="translate(810,822)" d="m0 0 1 3-2 1-29 1-35 2h-310l-101-1v-2h429l7-1 40-1z" fill="#221C19"/>
<path transform="translate(793,806)" d="m0 0h9l7 2 2-1v3l-4 1-8-1-12 2-24 2-10 1-59 1h-9l-5 1-31-1h-89l-17 1h-26l-34-1v-2l63-1h190l21-2 11-1 22-3z" fill="#75716E"/>
<path transform="translate(308,342)" d="m0 0h58l41 1h60l3-1h113l26 1 51 1 6 1v1h-49l-10-1h-136l-4 1-26 1-32-1-3-1h-133l-34 2-19-1-5-2 3-1 3 1h34l16-1z" fill="#E5DA20"/>
<path transform="translate(235,85)" d="m0 0h532l9 2 4 5v13l-2 1v-14h-2l-4-4-28-1h-416l-93-1z" fill="#A1A29E"/>
<path transform="translate(174,53)" d="m0 0h471v1l-115 1h-56l-32 1-53-1h-129l-86-1z" fill="#9FA09E"/>
<path transform="translate(176,332)" d="m0 0 1 4-4 5-1 24-3 12-4 10-4 9-5 13-2 16-1 14v58l2 9v6l-1-2h-2l-2-9-1-10v-77l4-17 12-22 4-14 1-19 2-4 2-1z" fill="#8C8C8F"/>
<path transform="translate(360,216)" d="m0 0h140l17 2 12 5 10 6 13 6 15 5 12 7 10 9 7 9 4 4-1 2-10-10-12-9-7-4-6-4-17-6-16-9-11-6-5-2-37-2-118-2z" fill="#E5DA20"/>
<path transform="translate(705,343)" d="m0 0h2l3 8 2 12 6 6 1 4 3 1 3 6 1 14 2 9v108l-1 9-3 3v-120l-2-12-7-12-5-8-3-14-1-7-1-1z" fill="#7D7D7C"/>
<path transform="translate(328,728)" d="m0 0 4 2 8 2 16 5 11 4 11 5 11 4 6 2 18 2 60 1v1l-80 1-9-2-5-1-10-4-4-1v-2l-9-1-9-3-7-4-5-5-7-4z" fill="#A6A8A0"/>
<path transform="translate(117,815)" d="m0 0 38 1 12 1h7v3h-17l-34-1-23 2-15 3-14 5-7 2-2 12-1 2v14l-2 8 1 2-7-1 1-6h2v-8l1-4 1-15 3-5 5-5 13-3 1-1 19-3 7-2z" fill="#696869"/>
<path transform="translate(415,175)" d="m0 0h90l9 1v1l-76 1-38 2-20 1-24 3-4 1h-7l3-3 12-4 18-2z" fill="#1D1A18"/>
<path transform="translate(169,353)" d="m0 0h1v8l-4 14-6 11-7 14-3 14v77l2 19h2l3 6v2l-3-1v-2l-3-1-3-7-2-11v-46l-1-9v-23l3-15 4-10 7-11 5-9z" fill="#A3A49F"/>
<path transform="translate(105,825)" d="m0 0h7v2l-22 4-13 7-1 2v21l1 3 5 4 13 2 2 1 169 1v1h-172l-19-2-3-7-1-11v-13l1-4 14-7 5-2z" fill="#3E3C38"/>
<path transform="translate(769,356)" d="m0 0h2v286h-1l-1-56-1-40v-51l1-45z" fill="#AAACA2"/>
<path transform="translate(370,795)" d="m0 0h21l43 1h30l76 2 100 1v1h-148l-33-1h-21l-46-1h-53l-7-1v-1z" fill="#AAACA2"/>
<path transform="translate(480,430)" d="m0 0 5 5 9 10 2 2 9 2 21 1 20 3h19l20-1-4 2-27 3-14 1h-20l-17-2-7-3-10-12-6-9z" fill="#E5DA20"/>
<path transform="translate(174,826)" d="m0 0h160v3h-168l-6-1v-1z" fill="#1C1918"/>
<path transform="translate(381,168)" d="m0 0 98 1v1l-17 1h-80l-9 1-2 1-19 3-16 5-12 6-4 4-6 4h-2l-2 4-9 7h-2v-2l6-5 7-8 5-3 7-6 5-3 6-3 9-2 7-2 17-3z" fill="#A3A49F"/>
<path transform="translate(481,430)" d="m0 0 4 2 6 4 14 4 24 6 12 4 24 3v1h-19l-20-3-21-1-9-2-10-10z" fill="#5F5C5C"/>
<path transform="translate(103,87)" d="m0 0m-14 1h14v2l-17 1-9 4-2 7-2 23-1 28v131l-2 1-1-15v-93l1-50 3-30 3-5z" fill="#BBBDBC"/>
<path transform="translate(818,76)" d="m0 0 4 1 2 1v2l4 2 4 5 3 1 1 4 2 1v225h-1l-1-223-8-8-5-4-4 2-3 14-3 22h-1v-9l3-24z" fill="#676667"/>
<path transform="translate(664,573)" d="m0 0h1v11h2v3h2l1 5-3 9-5 2v2l-4 1 1 4h-2v9l-2 5-2 1-1 2-2-1v-7l4-10 2-3-1-4h-2l-2 5-6 10-2 6-1-4 3-7 6-11 6-9 5-12z" fill="#27221F"/>
<path transform="translate(359,215)" d="m0 0h153l10 3 19 10 8 4 19 6 10 5 6 5 8 10-1 2-7-8-13-9-12-5-14-5-13-7-12-6-8-2-12-1h-140l-13 6v-2z" fill="#5C5959"/>
<path transform="translate(30,710)" d="m0 0 2 2 1 35v13l1 33 1 19 1 11-1 6 1 8 1 13-2 9v8l2 2-4-1-1-5 1-29-1-11-1-27v-22l-1-13z" fill="#AAACA2"/>
<path transform="translate(297,210)" d="m0 0 2 1-11 9-3 5-4 3-1 3h2l1 3-3 3-3 2-2 3-3-1-1-5 1-2-6 2h-4l-1 3-6 3h-3l-1 4-7 3-3 5h-2v2h-3l-1 5-3 3 3-9 7-9 9-7 3-2h4v-2l17-9 2-2h3v-2l5-3h2v-2l6-4z" fill="#191817"/>
<path transform="translate(862,727)" d="m0 0h1l1 13v25l-1 15v30l-1 41v18l-5 1-1-2-13-1-3-2h15l3-1 2-62 1-72z" fill="#4B4B4D"/>
<path transform="translate(387,173)" d="m0 0h107l18 1 16 5-4 1-10-3-9-1h-90l-37 1-7 1h-10l4-2 11-2z" fill="#575657"/>
<path transform="translate(225,615)" d="m0 0 4 1 4 5 1 7 4 2v2h2l1 4 3 1 2 4 6 4 2 4h2v2l-4-1-3-2-2-3-5-3v-2h-3l2 6-1 1 2 2-2 2-2-1v-3l-6-1-3-5 5-1-1-2-2-2v-6l-4-4 1-2-5-1v2h-3l-1-4 4-5z" fill="#161616"/>
<path transform="translate(274,675)" d="m0 0 6 2 3 3v2h2l3 9 3 3-1 3-6 1-4-2v-2h-4l-1-4-4-1-3-1 1-4 1-3-6 1v2l-3-1 1-2-3 1v-2l-3-1 2-1 1-2 3 2 5 1 1-2 1 2z" fill="#151515"/>
<path transform="translate(309,679)" d="m0 0 7 2 1 2 27 11 8 4 3 3 14 9 10 4 3 2-10-1-12-6-4-3-6-3v-2l-7 1-9-4-3-4-4-2-4 1-8-6v-2h-3v-3l-3-1z" fill="#35322C"/>
<path transform="translate(870,246)" d="m0 0h1v88l-1 12h-2l-1-13-1-4 1-9-1-11 1-21 1-28 1-12z" fill="#4B4B4D"/>
<path transform="translate(480,428)" d="m0 0 5 1 4 3 18 6 19 3 18 6 11 3h27l8-1-2 2-8 2h-23l-16-2-19-6-22-5-10-4-6-4-4-2z" fill="#36322D"/>
<path transform="translate(176,332)" d="m0 0 1 4-4 5-1 24-3 12-4 10-4 9-5 13-2 16-1 14v63l-2-3v-79l3-17 4-10 6-10 5-16 1-5 1-23 3-2z" fill="#5D5C5C"/>
<path transform="translate(208,604)" d="m0 0 2 2 1 4 4 3 1 11 7 1v-2l5 1v3l4 3v7l3 1-1 3h-5l-2-3-1-5-5-2-6-5v-2l-5 1-3-4v-5h-2l-3-5v-2z" fill="#161616"/>
<path transform="translate(167,380)" d="m0 0h1l-1 11-5 14-4 11v11l-2 6-2 26-1 38h-1v-58l2-24 3-12 6-15z" fill="#2A2622"/>
<path transform="translate(480,169)" d="m0 0 33 1 5 2 7 1 11 5-1 3 5 2v2l6 2 5 2v2l5 1 14 9 11 7 3 2v2l-6-2-8-6-7-4-16-9-6-4-9-3-4-3v-2l-6-1v-2l-16-4-38-1v-1z" fill="#A0A19C"/>
<path transform="translate(316,682)" d="m0 0 10 3 15 5 16 8 5 3 9 5 5 2v2l7 2h28v1l-7 1-1 1-21 1-12-4-11-8-7-4v-2l-4-1-31-13z" fill="#5F5C5C"/>
<path transform="translate(269,431)" d="m0 0 7 6 4 4 8 4 36 6 16 1h31l-3 2-7 1h-12l-46-3-6 2-7-1-4-2v-3l-4-2-8-7-5-6z" fill="#E5DA20"/>
<path transform="translate(276,437)" d="m0 0 5 1v2l30 3 5-1 3 3 1 3 8 2 39 2v1h-27l-16-1-36-6-11-6z" fill="#34302C"/>
<path transform="translate(869,456)" d="m0 0h1l1 9v66l-2 3-2-5-1-15v-12l1-6-1-4 1-3v-16l1-9z" fill="#4B4B4D"/>
<path transform="translate(570,679)" d="m0 0 2 1-9 7-18 7-13 4-9 3-10 7-11 3-3-1 7-3 8-4 6-5 16-7 23-7z" fill="#5F5C5C"/>
<path transform="translate(65,817)" d="m0 0h18l-1 3-16 3h-3l-2 4-5 11-2 17-1 6-2 7 4 1-7-1 2-12 2-21 8-16z" fill="#79787B"/>
<path transform="translate(859,772)" d="m0 0h1v68l-1 24-4 2h-10l-8-1v-2l7-2 5-2 7-6 1-21 1-1z" fill="#656364"/>
<path transform="translate(733,448)" d="m0 0 3 1 1 3v18l-3 14-3 3-2-3v-30l1-4z" fill="#E0E1E0"/>
<path transform="translate(810,277)" d="m0 0h1v156l-2-2v-21l-1-6v-36l1-16v-45z" fill="#797879"/>
<path transform="translate(507,212)" d="m0 0m-11 1h11l12 1 7 3 19 12 2 2-5-1-16-9-9-4-5-1-150-1v-1z" fill="#231D1A"/>
<path transform="translate(415,175)" d="m0 0h90v1l-87 1-33 2-30 4-10 2 3-3 12-4 18-2z" fill="#35322C"/>
<path transform="translate(821,82)" d="m0 0 4 2 10 9 2 2v88h-1l-1-87-4-2-13 1-2 12h-1v-8l3-14z" fill="#27231F"/>
<path transform="translate(167,537)" d="m0 0 2 3 3 14 3 19 6 17 2 2 2 5 2 6-2-1-3-5v-4l-4-2-5-6-4-9-1-31z" fill="#A5A69F"/>
<path transform="translate(98,816)" d="m0 0h6l-2 2-15 3-7 1-15 5-5 5-1 3-1 15-2 12h-2l-1 6h-2l1-11 2-10 2-12 5-9 2-3 11-3z" fill="#75716E"/>
<path transform="translate(793,806)" d="m0 0h9l7 2 2-1v3l-4 1-8-1-12 2-24 2-10 1h-17l1-2 20-2 11-1 22-3z" fill="#74706D"/>
<path transform="translate(818,50)" d="m0 0h7l2 5 1 3h2l9 17 7 4v2l4 2 9 3 7-1 5 2-3 2-6-1-9-1-9-4-8-5-5-6-5-12-6-5v-4z" fill="#AAACA2"/>
<path transform="translate(327,691)" d="m0 0 1 2 4 1 2-1v5l7 2 4 1h5v2l6 2 11 7 10 3 12 1v1l-9 1-4 1-11-4-6-2-7-4v-2l-9-3-10-4-3-2v-2l-4-1z" fill="#1F1B19"/>
<path transform="translate(771,660)" d="m0 0h1v114l-1 14-3 9-9 3h-18v-1l22-2 3-2 2-6 2-26z" fill="#AAACA2"/>
<path transform="translate(576,676)" d="m0 0h2v2l-16 12-15 7-10 3-10 4-12 3 5-5 5-3 10-3 16-5 13-6 7-5 3-3z" fill="#35322C"/>
<path transform="translate(487,428)" d="m0 0h6l9 2 1 1 12 2 5 2 11 2 4 2 9 2 6 2 8 1 1 5-9-1-7-4-9-3-17-4-16-2-7-3-6-2z" fill="#161616"/>
<path transform="translate(702,799)" d="m0 0h37l14 1-1 2h-75l1-2z" fill="#A1A29E"/>
<path transform="translate(90,832)" d="m0 0 3 1-6 3-1 4h-2l-1 12 2 1-3 4-1 4 2 6-2-1v-2l-4-2v-21l5-5z" fill="#161616"/>
<path transform="translate(374,745)" d="m0 0 4 1 11 4 6 2 18 2 60 1v1h-67l-14-1-13-4-3-3v-2z" fill="#656567"/>
<path transform="translate(187,440)" d="m0 0h1v32l1 2 2 30 1 14-2-3-5-37v-26z" fill="#605D5D"/>
<path transform="translate(863,843)" d="m0 0 5 10v17l-7 1v-20z" fill="#5F5C5C"/>
<path transform="translate(563,236)" d="m0 0h7l9 3 4 2 1 3 5 5 4 6 2 5 3 4-1 3-5-5-3-7-6-7-10-7-10-4z" fill="#35322C"/>
<path transform="translate(297,206)" d="m0 0 2 1-8 7-12 8-14 9-12 6-11 8-5 6-1-2 6-8h2v-2l13-7 11-6 9-5 15-11z" fill="#A4A6A0"/>
<path transform="translate(539,735)" d="m0 0 4 1-5 1-2 4-4 2-10 2-12 3-2 2-8 3h-8l1-2 13-4 9-3 15-6z" fill="#6C6B6C"/>
<path transform="translate(723,523)" d="m0 0h1v6l-6 12-6 13-3 10-4 10h-1l1-7 2-7 2-9 4-10h2l2-5 5-9z" fill="#7C7C7B"/>
<path transform="translate(223,623)" d="m0 0 5 1v3l4 3v7l3 1-1 3h-5l-2-3-1-5-5-2-2-3 1-3h3z" fill="#080707"/>
<path transform="translate(188,589)" d="m0 0 5 5 6 7 1 10-1 2-4-5-2-1v2h-2l-5-8 1-3 4 5 2 1-3-7-2-4z" fill="#1E1D1D"/>
<path transform="translate(531,182)" d="m0 0 11 3 9 4v2l5 1 14 9 11 7 3 2v2l-6-2-8-6-7-4-16-9-6-4-9-3z" fill="#787777"/>
<path transform="translate(321,209)" d="m0 0h9l7 3-1 3-4 1-5 1h-6l-4-2 1-4z" fill="#080707"/>
<path transform="translate(29,63)" d="m0 0 2 4 1 15v41l-2-4v-15l-1-1z" fill="#AAACA2"/>
<path transform="translate(560,696)" d="m0 0 3 1-1 2h-2l1 3-6 3-5-1-9 1-5 3-4-1-3 1-2-2 22-6 9-3z" fill="#161616"/>
<path transform="translate(857,832)" d="m0 0h1v28l-4 2-4 1-1 2h-12v-2l7-2 5-2 7-6z" fill="#7A787C"/>
<path transform="translate(367,743)" d="m0 0 9 3 3 4 13 4 14 1v1l-13 1-9-2-5-1-10-4z" fill="#A1A29E"/>
<path transform="translate(167,380)" d="m0 0h1l-1 11-5 14-3 3-1 2h-2v5h-1l1-9 7-18z" fill="#1F1C1A"/>
<path transform="translate(148,484)" d="m0 0h1l3 22v4h2l3 6v2l-3-1v-2l-3-1-3-7-2-11v-8z" fill="#A6A8A0"/>
<path transform="translate(293,826)" d="m0 0h41v3h-41z" fill="#201B19"/>
<path transform="translate(434,757)" d="m0 0h36l2 2-16 2-18-1-4-1z" fill="#E0E1E0"/>
<path transform="translate(176,332)" d="m0 0 1 4-4 5-1 24-3 12-4 10-3 5-3 1 2-5 4-8 4-13 1-5 1-23 3-2z" fill="#666464"/>
<path transform="translate(167,537)" d="m0 0 2 3 3 14 3 19 6 17 2 2 2 5 2 6-2-1-3-5v-4l-3-1-7-20-2-17-1-1-2-12z" fill="#616060"/>
<path transform="translate(146,421)" d="m0 0h1l1 22 1 41-2 3-1-3v-34l-1-9v-19z" fill="#AAACA2"/>
<path transform="translate(772,194)" d="m0 0h1v57h-3v-34l1-22z" fill="#A3A49F"/>
<path transform="translate(90,830)" d="m0 0 4 1-14 7-2 3v21l6 5 3 2h-5l-6-5-1-3v-21l4-4z" fill="#221C19"/>
<path transform="translate(340,733)" d="m0 0 8 1 8 3 11 4 6 3-2 1-12-4-1-1h-5v2l-8-1-2-2v-3h-2z" fill="#7C7C7B"/>
<path transform="translate(819,79)" d="m0 0h3v2l4 2 5 2 1 2 3 1 1 4 2 1v37h-1l-1-35-8-8-5-4-5 2z" fill="#605D5D"/>
<path transform="translate(499,214)" d="m0 0h20l7 3 19 12 2 2-5-1-16-9-9-4-18-2z" fill="#35322C"/>
<path transform="translate(297,210)" d="m0 0 2 1-12 10-4 3h-2l-1 3-19 9-3 1v-2l17-9 2-2h3v-2l5-3h2v-2l6-4z" fill="#5A5859"/>
<path transform="translate(339,185)" d="m0 0h3v2l-10 4-7 4-5 2-9 7-4-1 7-5h2l1-3 8-5 12-4z" fill="#474544"/>
<path transform="translate(174,826)" d="m0 0h32l1 2-38 1-9-1v-1z" fill="#201B19"/>
<path transform="translate(254,237)" d="m0 0 4 1h-3v2l-5 3h-2l-2 4-4 5-1 2h-2v2h-3l-1 5-3 3 3-9 7-9 9-7z" fill="#4A4847"/>
<path transform="translate(387,173)" d="m0 0h17v1l-13 2-20 2h-10l4-2 11-2z" fill="#6D6B6B"/>
<path transform="translate(281,435)" d="m0 0h7l1 4h9l4 1 1 3-12-1-10-2-2-4z" fill="#161616"/>
<path transform="translate(634,368)" d="m0 0h16l13 2 4 2-10-1h-24l-8 7-4 3 2-4 5-5z" fill="#E7DD1D"/>
<path transform="translate(378,176)" d="m0 0h12v1l-17 2-13 1v2l-12 3-3-1 8-4 7-2z" fill="#4A4949"/>
<path transform="translate(429,367)" d="m0 0h32l4 3-1 3-5-4h-20l-12 1-10 3v-2z" fill="#45413E"/>
<path transform="translate(276,437)" d="m0 0 5 1v2l4 2 6 2 19 3 7 2v1l-9-1-20-3-11-6z" fill="#565352"/>
<path transform="translate(273,229)" d="m0 0 2 1-3 4-6 2h-4l-1 3-6 3h-3l-1 4-5 1 2-4 5-3h2v-2l17-8z" fill="#2B2824"/>
<path transform="translate(328,728)" d="m0 0 4 2 8 2 1 4h2l2 4 7 2v1l-8-1-8-6-2-3-6-3z" fill="#989993"/>
<path transform="translate(112,800)" d="m0 0h15v1l-12 1-1 2-12 2-7 1 3-3z" fill="#A3A59F"/>
<path transform="translate(308,199)" d="m0 0m-1 1 3 2-4 4-7 2v2l-10 7h-2v2l-4 2 2-4 12-9z" fill="#838385"/>
<path transform="translate(302,210)" d="m0 0 4 1-2 5-4 4-4 1-1-4 2-3h2v-2z" fill="#080707"/>
<path transform="translate(316,188)" d="m0 0 2 2-3 1-1 4h-2l-2 4-9 7h-2v-2l6-5 7-8z" fill="#A6A7A0"/>
<path transform="translate(345,173)" d="m0 0h5l-3 2-11 4-10 5-4 1v2l-3 1 2-4 7-5 4-2 12-3z" fill="#AAACA2"/>
<path transform="translate(702,799)" d="m0 0h5l-3 3h-27l1-2z" fill="#A3A59F"/>
<path transform="translate(863,843)" d="m0 0 2 4 2 7-2 7-3-2v-13z" fill="#696869"/>
<path transform="translate(160,405)" d="m0 0 1 2-3 10v10l-2 6h-1v-18l1-5h2z" fill="#181716"/>
<path transform="translate(777,92)" d="m0 0h1v14h2l-1 9-2 3-1 8h-1v-9z" fill="#A5A7A0"/>
<path transform="translate(566,236)" d="m0 0 9 1 8 4 1 3 5 5 2 4-7-6-2-1v-2l-4-2-12-5z" fill="#211C19"/>
<path transform="translate(173,566)" d="m0 0 2 1 3 12 1 3h6v2l-4 1 1 6-3-3-5-15z" fill="#24221F"/>
<path transform="translate(309,679)" d="m0 0 7 2v4h2v2h2v2l5 1 1 3-5-1-6-5v-2h-3v-3l-3-1z" fill="#2C2624"/>
<path transform="translate(161,524)" d="m0 0 2 1 4 11 2 9v9l-2-1-2-14-3-8z" fill="#929290"/>
<path transform="translate(226,270)" d="m0 0 1 4-12 18-1-3 1-3 2-1 3-7 3-3 1-4z" fill="#808080"/>
<path transform="translate(821,82)" d="m0 0 4 2 5 5h-8l-4 1-1 2 1-7z" fill="#35322C"/>
<path transform="translate(327,691)" d="m0 0 1 2 4 1 2-1v5l7 2 1 2-3 1-9-5v-2l-4-1z" fill="#231D1A"/>
<path transform="translate(328,701)" d="m0 0h6l3 3 3 1-2 4-5-1-3-4-2-1z" fill="#080707"/>
<path transform="translate(176,332)" d="m0 0 1 4-4 5-1 24-1 6h-1l1-32 3-2z" fill="#5C5A59"/>
<path transform="translate(838,865)" d="m0 0 18 2 3 2v2l-7 1h-11v-1l13-1v-2h-14l-2-1z" fill="#312E29"/>
<path transform="translate(381,168)" d="m0 0h13l21 1v1l-31 1-5-1z" fill="#A0A19E"/>
<path transform="translate(356,178)" d="m0 0 4 1-14 5-9 3-6 1 3-2 11-5z" fill="#706E6E"/>
<path transform="translate(653,599)" d="m0 0 1 2-6 11-4 8-2 3 1-8 8-14z" fill="#393431"/>
<path transform="translate(772,218)" d="m0 0h1v33h-3v-23l1-9z" fill="#A0A19E"/>
<path transform="translate(170,555)" d="m0 0h1l2 17 3 9-1 3-5-10z" fill="#8B8B8E"/>
<path transform="translate(314,442)" d="m0 0 4 2 2 4 3 2h-6l-6-3-1-3z" fill="#1B1918"/>
<path transform="translate(303,206)" d="m0 0 2 1-4 5h-2v2l-5 3-3 4-4-1 11-9 1-3z" fill="#322F2B"/>
<path transform="translate(651,616)" d="m0 0 1 2 5-2-1 5-1 3-2 1-1 2-2-1v-7z" fill="#161616"/>
<path transform="translate(852,856)" d="m0 0m-1 1m-1 1m-1 1 1 2-1 4h-12v-2l7-2z" fill="#78757B"/>
<path transform="translate(287,222)" d="m0 0h2v3h-2v3h-2v6l-3-1v-2h-2l1-4z" fill="#080707"/>
<path transform="translate(513,707)" d="m0 0 3 1-2 2-16 3h-10v-1l14-2z" fill="#292420"/>
<path transform="translate(711,551)" d="m0 0 1 3-3 10-4 10h-1l1-7 5-15z" fill="#848483"/>
<path transform="translate(374,745)" d="m0 0 4 1 11 4 6 2-3 1-13-2-3-3v-2z" fill="#727172"/>
<path transform="translate(657,606)" d="m0 0 2 4h-2l-1 6-4 2 1-7z" fill="#221C19"/>
<path transform="translate(164,387)" d="m0 0 1 4-6 13-3 11h-1l1-9 7-18z" fill="#37342F"/>
<path transform="translate(258,676)" d="m0 0 9 3-1 3h-2v2l-3-1 1-2-3 1v-2l-3-1 2-1z" fill="#161616"/>
<path transform="translate(150,501)" d="m0 0h1l1 9h2l3 6v2l-3-1v-2l-3-1-1-2z" fill="#9D9E9A"/>
<path transform="translate(713,541)" d="m0 0h3l-1 6-2 4-2 1-2 5-1-4 4-8z" fill="#787775"/>
<path transform="translate(321,826)" d="m0 0h13v3h-19l4-2z" fill="#1D1A18"/>
<path transform="translate(559,725)" d="m0 0 2 1-9 6-9 3 5-5 7-3z" fill="#757475"/>
<path transform="translate(567,200)" d="m0 0 4 2 9 5 4 3v2l-6-2-10-8z" fill="#7C7C7B"/>
<path transform="translate(851,861)" d="m0 0h6v4l-2 1h-10l4-1z" fill="#6F6C6A"/>
<path transform="translate(717,378)" d="m0 0 4 4 4 7-1 4v-2h-2l-5-8z" fill="#79787B"/>
<path transform="translate(549,230)" d="m0 0 11 3 6 2v1h-7l-12-4z" fill="#2A2521"/>
<path transform="translate(273,668)" d="m0 0h7l15 4-4 1-12-2-6-2z" fill="#4C4846"/>
<path transform="translate(721,377)" d="m0 0h2l2 3v9l-4-4-1-7z" fill="#A8AAA1"/>
<path transform="translate(590,253)" d="m0 0h2l3 7 3 4-1 3-5-5-2-5z" fill="#35312E"/>
<path transform="translate(376,174)" d="m0 0 4 1h-2v2l-7 1h-10l4-2z" fill="#6F6D6E"/>
<path transform="translate(507,748)" d="m0 0 2 1-9 4h-8l1-2z" fill="#898987"/>
<path transform="translate(255,678)" d="m0 0 5 3h2v6l-8-6-1-2z" fill="#211F1E"/>
<path transform="translate(705,343)" d="m0 0h2l3 8v11h-1l-1-12-3-1z" fill="#7E7E7E"/>
<path transform="translate(576,676)" d="m0 0h2v2l-12 9-2-1 7-6 3-3z" fill="#3C3934"/>
<path transform="translate(150,499)" d="m0 0h2v3h2l1 10-1-2h-2z" fill="#737375"/>
<path transform="translate(539,735)" d="m0 0 4 1-5 1-2 4-4 2-4-1 6-2v-3z" fill="#92928F"/>
<path transform="translate(693,325)" d="m0 0 5 2 3 4v3h2l-1 3v-2l-3-1z" fill="#6D6C6C"/>
<path transform="translate(818,76)" d="m0 0 4 1 2 1v2l4 2 2 3-4-1-5-5-3-1z" fill="#6F6D6E"/>
<path transform="translate(178,587)" d="m0 0 5 5 2 5 2 6-2-1-3-5v-4l-3-1z" fill="#7A7A7B"/>
<path transform="translate(160,392)" d="m0 0h2l-2 6-2 5h-1v-8z" fill="#5B5A5B"/>
<path transform="translate(256,239)" d="m0 0 2 1-3 2h-3l-1 4-5 1 2-4z" fill="#211E1C"/>
<path transform="translate(556,195)" d="m0 0 6 1 5 3 2 4-4-2-9-5z" fill="#706E6F"/>
<path transform="translate(867,96)" d="m0 0h5l2 2v11h-1l-2-9-1-2z" fill="#79787A"/>
<path transform="translate(819,79)" d="m0 0h3v2l4 2 2 3-4-2h-4l-2 1z" fill="#4B4B4D"/>
</svg>
